<svg width="6" height="8" viewBox="0 0 6 4" fill="none" xmlns="http://www.w3.org/2000/svg">
<path d="M3.37649 3.57L5.77449 0.829C6.05749 0.5065 5.82749 1.83853e-07 5.39799 1.83853e-07H0.601995C0.505872 -8.22297e-05 0.411764 0.0275439 0.330938 0.0795705C0.250113 0.131597 0.185998 0.205819 0.14627 0.293347C0.106542 0.380875 0.0928855 0.477999 0.106936 0.573089C0.120987 0.668179 0.16215 0.757203 0.225494 0.8295L2.62349 3.5695C2.67043 3.62321 2.7283 3.66625 2.79324 3.69574C2.85818 3.72523 2.92867 3.74049 2.99999 3.74049C3.07132 3.74049 3.14181 3.72523 3.20675 3.69574C3.27169 3.66625 3.32956 3.62321 3.37649 3.5695V3.57Z" fill="#9B9B9B"/>
</svg>
