<svg width="32" height="32" viewBox="0 0 32 32" fill="none" xmlns="http://www.w3.org/2000/svg">
<path d="M22 16C23.84 16 25.32 14.5066 25.32 12.6666C25.32 10.8266 23.84 9.33329 22 9.33329C20.16 9.33329 18.6667 10.8266 18.6667 12.6666C18.6667 14.5066 20.16 16 22 16ZM12 14.6666C14.2134 14.6666 15.9867 12.88 15.9867 10.6666C15.9867 8.45329 14.2134 6.66663 12 6.66663C9.78669 6.66663 8.00002 8.45329 8.00002 10.6666C8.00002 12.88 9.78669 14.6666 12 14.6666ZM22 18.6666C19.56 18.6666 14.6667 19.8933 14.6667 22.3333V25.3333H29.3334V22.3333C29.3334 19.8933 24.44 18.6666 22 18.6666ZM12 17.3333C8.89335 17.3333 2.66669 18.8933 2.66669 22V25.3333H12V22.3333C12 21.2 12.44 19.2133 15.16 17.7066C14 17.4666 12.88 17.3333 12 17.3333Z" fill="#999999"/>
</svg>
