<svg width="30" height="20" viewBox="0 0 28 20" fill="none" xmlns="http://www.w3.org/2000/svg">
<path d="M20.0001 9.99996C21.8401 9.99996 23.3201 8.50663 23.3201 6.66663C23.3201 4.82663 21.8401 3.33329 20.0001 3.33329C18.1601 3.33329 16.6667 4.82663 16.6667 6.66663C16.6667 8.50663 18.1601 9.99996 20.0001 9.99996ZM10.0001 8.66663C12.2134 8.66663 13.9867 6.87996 13.9867 4.66663C13.9867 2.45329 12.2134 0.666626 10.0001 0.666626C7.78675 0.666626 6.00008 2.45329 6.00008 4.66663C6.00008 6.87996 7.78675 8.66663 10.0001 8.66663ZM20.0001 12.6666C17.5601 12.6666 12.6667 13.8933 12.6667 16.3333V19.3333H27.3334V16.3333C27.3334 13.8933 22.4401 12.6666 20.0001 12.6666ZM10.0001 11.3333C6.89341 11.3333 0.666748 12.8933 0.666748 16V19.3333H10.0001V16.3333C10.0001 15.2 10.4401 13.2133 13.1601 11.7066C12.0001 11.4666 10.8801 11.3333 10.0001 11.3333Z" fill="#999999"/>
</svg>
