<svg width="26" height="26" viewBox="0 0 26 26" fill="none" xmlns="http://www.w3.org/2000/svg">
<path d="M17.2225 16.3109C17.837 15.9809 18.5403 15.793 19.2893 15.793H19.2919C19.368 15.793 19.4036 15.7016 19.3477 15.6508C18.5688 14.9517 17.679 14.3871 16.7147 13.9801C16.7046 13.975 16.6944 13.9725 16.6842 13.9674C18.261 12.8223 19.2868 10.9611 19.2868 8.86133C19.2868 5.38281 16.4735 2.56445 13.0026 2.56445C9.5317 2.56445 6.72096 5.38281 6.72096 8.86133C6.72096 10.9611 7.74674 12.8223 9.32604 13.9674C9.31588 13.9725 9.30573 13.975 9.29557 13.9801C8.16061 14.46 7.14245 15.148 6.26647 16.0266C5.39555 16.8959 4.70219 17.9265 4.22506 19.0607C3.75562 20.1715 3.50227 21.3615 3.47858 22.5672C3.4779 22.5943 3.48265 22.6212 3.49256 22.6465C3.50246 22.6717 3.51732 22.6947 3.53625 22.7141C3.55518 22.7335 3.5778 22.7489 3.60278 22.7595C3.62776 22.77 3.6546 22.7754 3.6817 22.7754H5.2026C5.31178 22.7754 5.40319 22.6865 5.40573 22.5773C5.45651 20.6172 6.24108 18.7814 7.62995 17.39C9.06452 15.9504 10.9739 15.1582 13.0051 15.1582C14.4448 15.1582 15.826 15.5568 17.0169 16.3033C17.0475 16.3225 17.0826 16.3334 17.1187 16.3347C17.1548 16.336 17.1906 16.3278 17.2225 16.3109ZM13.0051 13.2285C11.8422 13.2285 10.7479 12.774 9.92272 11.9488C9.51671 11.5439 9.19484 11.0626 8.97565 10.5327C8.75646 10.0028 8.64428 9.43477 8.64557 8.86133C8.64557 7.6959 9.10006 6.59902 9.92272 5.77383C10.7454 4.94863 11.8397 4.49414 13.0051 4.49414C14.1706 4.49414 15.2624 4.94863 16.0876 5.77383C16.4936 6.17878 16.8154 6.66007 17.0346 7.18997C17.2538 7.71986 17.366 8.28789 17.3647 8.86133C17.3647 10.0268 16.9102 11.1236 16.0876 11.9488C15.2624 12.774 14.168 13.2285 13.0051 13.2285ZM22.3438 19.2715H20.211V17.1387C20.211 17.027 20.1196 16.9355 20.0079 16.9355H18.586C18.4743 16.9355 18.3829 17.027 18.3829 17.1387V19.2715H16.2501C16.1383 19.2715 16.0469 19.3629 16.0469 19.4746V20.8965C16.0469 21.0082 16.1383 21.0996 16.2501 21.0996H18.3829V23.2324C18.3829 23.3441 18.4743 23.4355 18.586 23.4355H20.0079C20.1196 23.4355 20.211 23.3441 20.211 23.2324V21.0996H22.3438C22.4555 21.0996 22.5469 21.0082 22.5469 20.8965V19.4746C22.5469 19.3629 22.4555 19.2715 22.3438 19.2715Z" fill="#999999"/>
</svg>
