<svg width="18" height="18" viewBox="0 0 18 18" fill="none" xmlns="http://www.w3.org/2000/svg">
<path fill-rule="evenodd" clip-rule="evenodd" d="M11.7473 11.7471C11.8518 11.6425 11.9758 11.5595 12.1124 11.5029C12.249 11.4463 12.3954 11.4171 12.5432 11.4171C12.691 11.4171 12.8374 11.4463 12.974 11.5029C13.1106 11.5595 13.2346 11.6425 13.3391 11.7471L17.6703 16.0782C17.8814 16.2892 18 16.5753 18.0001 16.8738C18.0003 17.1722 17.8818 17.4584 17.6709 17.6695C17.4599 17.8806 17.1738 17.9993 16.8753 17.9994C16.5769 17.9995 16.2907 17.881 16.0796 17.6701L11.7484 13.3389C11.6438 13.2344 11.5608 13.1104 11.5042 12.9738C11.4476 12.8372 11.4185 12.6908 11.4185 12.543C11.4185 12.3951 11.4476 12.2488 11.5042 12.1122C11.5608 11.9756 11.6438 11.8515 11.7484 11.7471H11.7473Z" fill="#9B9B9B"/>
<path fill-rule="evenodd" clip-rule="evenodd" d="M7.31238 13.4998C8.12492 13.4998 8.9295 13.3397 9.68019 13.0288C10.4309 12.7178 11.113 12.2621 11.6875 11.6875C12.2621 11.113 12.7178 10.4309 13.0288 9.68019C13.3397 8.9295 13.4998 8.12492 13.4998 7.31238C13.4998 6.49984 13.3397 5.69525 13.0288 4.94456C12.7178 4.19387 12.2621 3.51178 11.6875 2.93723C11.113 2.36268 10.4309 1.90691 9.68019 1.59597C8.9295 1.28502 8.12492 1.12498 7.31238 1.12498C5.67138 1.12498 4.09759 1.77687 2.93723 2.93723C1.77687 4.09759 1.12498 5.67138 1.12498 7.31238C1.12498 8.95338 1.77687 10.5272 2.93723 11.6875C4.09759 12.8479 5.67138 13.4998 7.31238 13.4998ZM14.6248 7.31238C14.6248 9.25174 13.8543 11.1117 12.483 12.483C11.1117 13.8543 9.25174 14.6248 7.31238 14.6248C5.37302 14.6248 3.51308 13.8543 2.14175 12.483C0.770409 11.1117 0 9.25174 0 7.31238C0 5.37302 0.770409 3.51308 2.14175 2.14175C3.51308 0.770409 5.37302 0 7.31238 0C9.25174 0 11.1117 0.770409 12.483 2.14175C13.8543 3.51308 14.6248 5.37302 14.6248 7.31238Z" fill="#9B9B9B"/>
</svg>
