<svg width="22" height="23" viewBox="0 0 22 23" fill="none" xmlns="http://www.w3.org/2000/svg">
<path d="M21.4812 14.2759L19.8181 12.9087C19.8968 12.4448 19.9375 11.9712 19.9375 11.4976C19.9375 11.0239 19.8968 10.5503 19.8181 10.0864L21.4812 8.71924C21.6066 8.61598 21.6964 8.47846 21.7386 8.32495C21.7808 8.17144 21.7734 8.00922 21.7173 7.85986L21.6945 7.79639C21.2366 6.56598 20.5511 5.42538 19.6709 4.42969L19.6252 4.37842C19.5184 4.2577 19.3761 4.17091 19.217 4.12951C19.0579 4.08811 18.8895 4.09403 18.7339 4.14648L16.6697 4.85205C15.908 4.25146 15.0574 3.77783 14.1382 3.4458L13.7396 1.37061C13.7095 1.21446 13.6308 1.07081 13.5137 0.958735C13.3967 0.846663 13.247 0.771476 13.0845 0.743164L13.016 0.730957C11.6931 0.501465 10.3017 0.501465 8.97886 0.730957L8.91031 0.743164C8.7478 0.771476 8.5981 0.846663 8.48109 0.958735C8.36408 1.07081 8.28531 1.21446 8.25523 1.37061L7.85406 3.45557C6.94225 3.78767 6.09313 4.26105 5.34039 4.85693L3.26089 4.14648C3.10542 4.09361 2.93689 4.08748 2.7777 4.12891C2.61851 4.17033 2.4762 4.25736 2.36968 4.37842L2.32398 4.42969C1.44482 5.42608 0.759348 6.5665 0.300347 7.79639L0.277495 7.85986C0.163238 8.16504 0.257183 8.50684 0.513628 8.71924L2.19703 10.1011C2.11832 10.5601 2.08023 11.0288 2.08023 11.4951C2.08023 11.9639 2.11832 12.4326 2.19703 12.8892L0.513628 14.271C0.388188 14.3743 0.298408 14.5118 0.256228 14.6653C0.214048 14.8188 0.221466 14.981 0.277495 15.1304L0.300347 15.1938C0.759917 16.4243 1.44039 17.5596 2.32398 18.5605L2.36968 18.6118C2.47646 18.7325 2.61878 18.8193 2.77787 18.8607C2.93696 18.9021 3.10537 18.8962 3.26089 18.8437L5.34039 18.1333C6.09703 18.7314 6.94253 19.2051 7.85406 19.5347L8.25523 21.6196C8.28531 21.7758 8.36408 21.9194 8.48109 22.0315C8.5981 22.1436 8.7478 22.2188 8.91031 22.2471L8.97886 22.2593C10.3139 22.49 11.681 22.49 13.016 22.2593L13.0845 22.2471C13.247 22.2188 13.3967 22.1436 13.5137 22.0315C13.6308 21.9194 13.7095 21.7758 13.7396 21.6196L14.1382 19.5444C15.057 19.2133 15.9124 18.7381 16.6697 18.1382L18.7339 18.8437C18.8894 18.8966 19.0579 18.9028 19.2171 18.8613C19.3763 18.8199 19.5186 18.7329 19.6252 18.6118L19.6709 18.5605C20.5544 17.5571 21.2349 16.4243 21.6945 15.1938L21.7173 15.1304C21.8316 14.8301 21.7377 14.4883 21.4812 14.2759ZM18.0154 10.3745C18.0789 10.7432 18.1119 11.1216 18.1119 11.5C18.1119 11.8784 18.0789 12.2568 18.0154 12.6255L17.8478 13.6045L19.7445 15.1645C19.457 15.8015 19.094 16.4044 18.6628 16.9614L16.3066 16.1582L15.5093 16.7881C14.9025 17.2666 14.2271 17.6426 13.4959 17.9062L12.5285 18.2554L12.074 20.6235C11.3569 20.7017 10.6329 20.7017 9.91578 20.6235L9.46128 18.2505L8.50152 17.8965C7.77789 17.6328 7.10503 17.2568 6.50328 16.7808L5.70601 16.1484L3.33453 16.959C2.90289 16.3999 2.54234 15.7969 2.25289 15.1621L4.16988 13.5874L4.00484 12.6108C3.9439 12.2471 3.91089 11.8711 3.91089 11.5C3.91089 11.1265 3.94136 10.7529 4.00484 10.3892L4.16988 9.4126L2.25289 7.83789C2.5398 7.20068 2.90289 6.6001 3.33453 6.04101L5.70601 6.85156L6.50328 6.21924C7.10503 5.74316 7.77789 5.36719 8.50152 5.10352L9.46382 4.75439L9.91832 2.38135C10.6318 2.30322 11.3605 2.30322 12.0765 2.38135L12.531 4.74951L13.4984 5.09863C14.2271 5.3623 14.905 5.73828 15.5119 6.2168L16.3091 6.84668L18.6654 6.04346C19.097 6.60254 19.4576 7.20557 19.747 7.84033L17.8503 9.40039L18.0154 10.3745ZM11 6.95898C8.53199 6.95898 6.53121 8.88281 6.53121 11.2559C6.53121 13.6289 8.53199 15.5527 11 15.5527C13.4679 15.5527 15.4687 13.6289 15.4687 11.2559C15.4687 8.88281 13.4679 6.95898 11 6.95898ZM13.0109 13.1895C12.7471 13.4438 12.4337 13.6455 12.0886 13.7829C11.7435 13.9203 11.3735 13.9908 11 13.9902C10.2408 13.9902 9.5273 13.7046 8.98902 13.1895C8.72451 12.9358 8.51476 12.6344 8.37183 12.3026C8.2289 11.9708 8.15562 11.615 8.15621 11.2559C8.15621 10.5259 8.45328 9.83984 8.98902 9.32226C9.5273 8.80469 10.2408 8.52148 11 8.52148C11.7591 8.52148 12.4726 8.80469 13.0109 9.32226C13.2754 9.57587 13.4852 9.87727 13.6281 10.2091C13.771 10.5409 13.8443 10.8967 13.8437 11.2559C13.8437 11.9858 13.5466 12.6719 13.0109 13.1895Z" fill="#999999"/>
</svg>
